<?xml version="1.0" encoding="utf-8"?>
<!-- Generator: Adobe Illustrator 16.0.4, SVG Export Plug-In . SVG Version: 6.00 Build 0)  -->
<!DOCTYPE svg PUBLIC "-//W3C//DTD SVG 1.1//EN" "http://www.w3.org/Graphics/SVG/1.1/DTD/svg11.dtd">
<svg version="1.1" id="Layer_1" xmlns="http://www.w3.org/2000/svg" xmlns:xlink="http://www.w3.org/1999/xlink" x="0px" y="0px"
	 width="288px" height="288px" viewBox="0 0 288 288" enable-background="new 0 0 288 288" xml:space="preserve">
<rect fill="#211335" width="288" height="288"/>
<g>
	<polygon fill="#7542AE" points="289,-2 215.875,71.375 215.875,-2 142.75,71.375 70.031,-2 69.727,71.375 -3.297,-2 -3.5,71.375 
		70.641,144.75 215.875,144.75 142.75,218.125 215.875,218.125 289,144.75 216.18,144.75 289,71.375 	"/>
	<polygon fill="#7542AE" points="70.641,144.75 -3.5,144.75 69.625,218.125 142.75,218.125 	"/>
	<polygon fill="#7542AE" points="289,291.5 289,218.125 215.875,218.125 142.75,291.5 	"/>
	<polygon fill="#7542AE" points="-3.5,218.125 -3.5,291.5 142.75,291.5 69.625,218.125 	"/>
</g>
</svg>
