<?xml version="1.0" encoding="utf-8"?>
<!-- Generator: Adobe Illustrator 16.0.4, SVG Export Plug-In . SVG Version: 6.00 Build 0)  -->
<!DOCTYPE svg PUBLIC "-//W3C//DTD SVG 1.1//EN" "http://www.w3.org/Graphics/SVG/1.1/DTD/svg11.dtd">
<svg version="1.1" id="Layer_1" xmlns="http://www.w3.org/2000/svg" xmlns:xlink="http://www.w3.org/1999/xlink" x="0px" y="0px"
	 width="288px" height="288px" viewBox="0 0 288 288" enable-background="new 0 0 288 288" xml:space="preserve">
<rect fill="#211335" stroke="#000000" stroke-miterlimit="10" width="288" height="288"/>
<g>
	<polygon fill="#006ADF" points="289,73.643 216.375,-1 216.375,73.643 143.75,-1 72.134,73.643 72.134,-1 -1.5,73.643 -1.5,144.25 
		71.629,144.25 143.75,71.625 216.879,144.25 289,144.25 	"/>
	<polygon fill="#006ADF" points="71.629,144.25 -1.5,217.379 71.831,217.581 71.831,289.5 216.879,289.5 216.879,216.875 
		289,217.379 216.879,144.25 144.456,217.581 	"/>
	<polygon fill="#006ADF" points="-1.5,289.5 71.831,289.5 -1.5,217.379 	"/>
	<polygon fill="#006ADF" points="289,289.5 289,217.379 216.879,289.5 	"/>
</g>
</svg>
